<svg width="221" height="73" viewBox="0 0 221 73" fill="none" xmlns="http://www.w3.org/2000/svg">
<path d="M0 54.1V10H15.7895V54.1H31.5789V41.5H44.2105V10H60V54.1H47.3684V73H15.7895V54.1H0Z" fill="white"/>
<path d="M84.364 34.608H84.4C84.688 33.48 85.156 32.004 85.804 30.18L92.356 11.928L89.44 11.568C89.344 11.208 89.344 10.764 89.44 10.236C90.76 10.332 92.032 10.38 93.256 10.38C94.312 10.38 95.608 10.344 97.144 10.272C97.288 10.704 97.288 11.136 97.144 11.568L94.768 12C94.384 12.576 93.904 13.644 93.328 15.204L84.04 40.08H82.78L72.124 11.928L69.208 11.568C69.112 11.208 69.112 10.764 69.208 10.236C70.528 10.332 72.232 10.38 74.32 10.38C76.192 10.38 77.908 10.344 79.468 10.272C79.612 10.704 79.612 11.136 79.468 11.568L76.48 12L83.068 30.18C83.572 31.644 84.004 33.12 84.364 34.608ZM115.902 28.848H104.598C104.382 34.968 106.218 38.028 110.106 38.028C111.762 38.028 113.454 37.296 115.182 35.832C115.542 36.048 115.818 36.42 116.01 36.948C114.354 38.796 112.254 39.72 109.71 39.72C103.854 39.72 100.926 36.276 100.926 29.388C100.926 26.124 101.79 23.592 103.518 21.792C105.246 19.968 107.262 19.056 109.566 19.056C112.086 19.056 113.898 19.932 115.002 21.684C116.106 23.436 116.658 25.716 116.658 28.524C116.418 28.716 116.166 28.824 115.902 28.848ZM109.494 20.496C108.246 20.496 107.178 21.144 106.29 22.44C105.426 23.736 104.898 25.392 104.706 27.408H109.17C110.946 27.408 112.218 27.3 112.986 27.084C112.986 25.116 112.686 23.532 112.086 22.332C111.486 21.108 110.622 20.496 109.494 20.496ZM131.288 19.776L131.216 23.484C131.816 22.38 132.644 21.372 133.7 20.46C134.78 19.524 135.8 19.056 136.76 19.056C137.504 19.056 138.164 19.14 138.74 19.308C138.932 19.62 139.028 20.028 139.028 20.532C139.028 21.324 138.86 22.116 138.524 22.908C137.66 22.668 136.832 22.548 136.04 22.548C134.072 22.548 132.452 23.508 131.18 25.428L131.108 31.728V37.164L135.104 37.704C135.2 38.088 135.2 38.568 135.104 39.144C133.592 39.072 131.864 39.036 129.92 39.036C128.456 39.036 126.716 39.06 124.7 39.108C124.556 38.652 124.556 38.184 124.7 37.704L127.544 37.308C127.64 35.988 127.688 34.464 127.688 32.736V22.872C127.688 22.392 127.652 21.948 127.58 21.54L124.736 21.18C124.64 20.82 124.64 20.364 124.736 19.812C126.392 19.692 128.456 19.44 130.928 19.056C131.144 19.296 131.264 19.536 131.288 19.776ZM152.153 25.608V37.164L155.069 37.704C155.093 37.824 155.105 37.932 155.105 38.028C155.129 38.124 155.141 38.232 155.141 38.352C155.141 38.472 155.129 38.604 155.105 38.748C155.105 38.868 155.093 39 155.069 39.144C153.557 39.072 152.009 39.036 150.425 39.036C149.873 39.036 149.201 39.036 148.409 39.036C147.641 39.06 146.753 39.084 145.745 39.108C145.673 38.892 145.637 38.664 145.637 38.424C145.637 38.208 145.673 37.968 145.745 37.704L148.589 37.308C148.637 36.636 148.673 35.928 148.697 35.184C148.721 34.416 148.733 33.6 148.733 32.736V25.068C148.733 23.484 148.697 22.308 148.625 21.54L145.781 21.18C145.733 21.06 145.709 20.856 145.709 20.568C145.709 20.448 145.709 20.328 145.709 20.208C145.709 20.088 145.733 19.956 145.781 19.812C147.413 19.716 149.477 19.464 151.973 19.056C152.189 19.296 152.309 19.536 152.333 19.776C152.213 20.448 152.153 22.392 152.153 25.608ZM146.897 12.756C146.849 12.636 146.825 12.516 146.825 12.396C146.825 12.252 146.825 12.12 146.825 12C146.825 11.352 147.089 10.836 147.617 10.452C148.169 10.044 148.841 9.84 149.633 9.84C150.377 9.84 150.977 10.068 151.433 10.524C151.913 10.956 152.153 11.556 152.153 12.324C152.153 12.948 151.877 13.452 151.325 13.836C150.797 14.22 150.113 14.412 149.273 14.412C148.697 14.412 148.181 14.268 147.725 13.98C147.293 13.692 147.017 13.284 146.897 12.756ZM168.049 15.456V20.604H173.125C173.173 20.892 173.197 21.108 173.197 21.252C173.197 21.468 173.173 21.72 173.125 22.008L168.049 22.764V32.664C168.049 34.44 168.205 35.7 168.517 36.444C168.853 37.164 169.369 37.524 170.065 37.524C170.689 37.524 171.661 37.272 172.981 36.768C173.221 36.984 173.389 37.392 173.485 37.992C172.765 38.424 172.213 38.748 171.829 38.964C171.469 39.156 171.001 39.324 170.425 39.468C169.873 39.636 169.285 39.72 168.661 39.72C167.461 39.72 166.477 39.264 165.709 38.352C164.965 37.416 164.593 36 164.593 34.104V22.332L162.073 22.008C162.025 21.768 162.001 21.564 162.001 21.396C162.001 21.204 162.025 20.94 162.073 20.604C162.745 20.484 163.321 20.28 163.801 19.992C164.305 19.68 164.725 19.26 165.061 18.732C165.397 18.18 165.649 17.7 165.817 17.292C166.009 16.86 166.237 16.248 166.501 15.456C166.717 15.384 166.981 15.348 167.293 15.348C167.581 15.348 167.833 15.384 168.049 15.456ZM184.301 34.212C184.301 35.46 184.529 36.348 184.985 36.876C185.441 37.38 186.161 37.632 187.145 37.632C187.865 37.632 188.657 37.416 189.521 36.984C190.409 36.528 191.225 35.88 191.969 35.04V29.424C189.497 29.568 187.601 30.012 186.281 30.756C184.961 31.476 184.301 32.628 184.301 34.212ZM191.969 28.128V26.292C191.969 24.252 191.729 22.776 191.249 21.864C190.793 20.928 190.025 20.46 188.945 20.46C187.841 20.46 186.953 20.82 186.281 21.54C185.609 22.236 185.153 23.436 184.913 25.14C184.145 25.308 183.581 25.392 183.221 25.392C182.285 25.392 181.733 25.056 181.565 24.384C181.565 22.752 182.273 21.456 183.689 20.496C185.105 19.536 186.869 19.056 188.981 19.056C191.309 19.056 192.953 19.536 193.913 20.496C194.897 21.432 195.389 23.124 195.389 25.572V35.724C195.389 36.324 195.425 36.84 195.497 37.272L198.341 37.632C198.437 37.992 198.437 38.448 198.341 39C196.637 39.072 194.825 39.24 192.905 39.504C192.713 39.312 192.593 39.072 192.545 38.784L192.365 36.3C190.373 38.58 188.153 39.72 185.705 39.72C184.193 39.72 183.005 39.288 182.141 38.424C181.301 37.56 180.881 36.396 180.881 34.932C180.881 32.724 181.877 31.056 183.869 29.928C185.885 28.8 188.585 28.2 191.969 28.128ZM212.064 38.136C213.36 38.136 214.32 37.836 214.944 37.236C215.568 36.636 215.88 35.94 215.88 35.148C215.88 34.692 215.808 34.272 215.664 33.888C215.52 33.504 215.28 33.132 214.944 32.772C214.632 32.412 214.212 32.064 213.684 31.728C213.156 31.368 212.496 30.984 211.704 30.576C210.72 30.072 209.868 29.592 209.148 29.136C208.452 28.68 207.876 28.2 207.42 27.696C206.964 27.192 206.616 26.652 206.376 26.076C206.16 25.5 206.052 24.852 206.052 24.132C206.052 23.268 206.208 22.524 206.52 21.9C206.832 21.252 207.264 20.724 207.816 20.316C208.392 19.884 209.064 19.572 209.832 19.38C210.6 19.164 211.452 19.056 212.388 19.056C214.26 19.056 216.084 19.512 217.86 20.424V25.032H216.168L215.376 21.144C214.32 20.64 213.204 20.388 212.028 20.388C210.06 20.388 209.076 21.192 209.076 22.8C209.076 23.664 209.4 24.456 210.048 25.176C210.696 25.896 211.74 26.616 213.18 27.336C214.164 27.84 215.028 28.32 215.772 28.776C216.516 29.232 217.128 29.712 217.608 30.216C218.112 30.72 218.484 31.272 218.724 31.872C218.988 32.448 219.12 33.108 219.12 33.852C219.12 34.692 218.94 35.472 218.58 36.192C218.22 36.912 217.716 37.536 217.068 38.064C216.42 38.568 215.64 38.964 214.728 39.252C213.816 39.564 212.808 39.72 211.704 39.72C209.568 39.72 207.564 39.264 205.692 38.352V33.744H207.384L208.176 37.308C209.4 37.86 210.696 38.136 212.064 38.136Z" fill="white"/>
<path d="M87.4 68.1C86.4933 68.1 85.6733 67.8933 84.94 67.48C84.2067 67.0533 83.62 66.4467 83.18 65.66C82.7533 64.86 82.54 63.8867 82.54 62.74C82.54 61.5933 82.7533 60.6267 83.18 59.84C83.6067 59.04 84.1867 58.4333 84.92 58.02C85.6533 57.6067 86.48 57.4 87.4 57.4C88.4 57.4 89.2933 57.6267 90.08 58.08C90.88 58.52 91.5067 59.1467 91.96 59.96C92.4133 60.76 92.64 61.6867 92.64 62.74C92.64 63.8067 92.4133 64.74 91.96 65.54C91.5067 66.34 90.88 66.9667 90.08 67.42C89.2933 67.8733 88.4 68.1 87.4 68.1ZM81.98 71.88V57.5H83.34V60.66L83.2 62.76L83.4 64.88V71.88H81.98ZM87.3 66.84C88.0467 66.84 88.7133 66.6733 89.3 66.34C89.8867 65.9933 90.3533 65.5133 90.7 64.9C91.0467 64.2733 91.22 63.5533 91.22 62.74C91.22 61.9267 91.0467 61.2133 90.7 60.6C90.3533 59.9867 89.8867 59.5067 89.3 59.16C88.7133 58.8133 88.0467 58.64 87.3 58.64C86.5533 58.64 85.88 58.8133 85.28 59.16C84.6933 59.5067 84.2267 59.9867 83.88 60.6C83.5467 61.2133 83.38 61.9267 83.38 62.74C83.38 63.5533 83.5467 64.2733 83.88 64.9C84.2267 65.5133 84.6933 65.9933 85.28 66.34C85.88 66.6733 86.5533 66.84 87.3 66.84ZM103.735 68V57.5H105.095V60.36L104.955 59.86C105.248 59.06 105.741 58.4533 106.435 58.04C107.128 57.6133 107.988 57.4 109.015 57.4V58.78C108.961 58.78 108.908 58.78 108.855 58.78C108.801 58.7667 108.748 58.76 108.695 58.76C107.588 58.76 106.721 59.1 106.095 59.78C105.468 60.4467 105.155 61.4 105.155 62.64V68H103.735ZM123.988 68.1C122.975 68.1 122.061 67.8733 121.248 67.42C120.448 66.9533 119.815 66.32 119.348 65.52C118.881 64.7067 118.648 63.78 118.648 62.74C118.648 61.6867 118.881 60.76 119.348 59.96C119.815 59.16 120.448 58.5333 121.248 58.08C122.048 57.6267 122.961 57.4 123.988 57.4C125.028 57.4 125.948 57.6267 126.748 58.08C127.561 58.5333 128.195 59.16 128.648 59.96C129.115 60.76 129.348 61.6867 129.348 62.74C129.348 63.78 129.115 64.7067 128.648 65.52C128.195 66.32 127.561 66.9533 126.748 67.42C125.935 67.8733 125.015 68.1 123.988 68.1ZM123.988 66.84C124.748 66.84 125.421 66.6733 126.008 66.34C126.595 65.9933 127.055 65.5133 127.388 64.9C127.735 64.2733 127.908 63.5533 127.908 62.74C127.908 61.9133 127.735 61.1933 127.388 60.58C127.055 59.9667 126.595 59.4933 126.008 59.16C125.421 58.8133 124.755 58.64 124.008 58.64C123.261 58.64 122.595 58.8133 122.008 59.16C121.421 59.4933 120.955 59.9667 120.608 60.58C120.261 61.1933 120.088 61.9133 120.088 62.74C120.088 63.5533 120.261 64.2733 120.608 64.9C120.955 65.5133 121.421 65.9933 122.008 66.34C122.595 66.6733 123.255 66.84 123.988 66.84ZM143.767 68.1C142.781 68.1 142.021 67.8333 141.487 67.3C140.954 66.7667 140.687 66.0133 140.687 65.04V55.18H142.107V64.96C142.107 65.5733 142.261 66.0467 142.567 66.38C142.887 66.7133 143.341 66.88 143.927 66.88C144.554 66.88 145.074 66.7 145.487 66.34L145.987 67.36C145.707 67.6133 145.367 67.8 144.967 67.92C144.581 68.04 144.181 68.1 143.767 68.1ZM138.807 58.68V57.5H145.307V58.68H138.807ZM160.681 68.1C159.668 68.1 158.754 67.8733 157.941 67.42C157.141 66.9533 156.508 66.32 156.041 65.52C155.574 64.7067 155.341 63.78 155.341 62.74C155.341 61.6867 155.574 60.76 156.041 59.96C156.508 59.16 157.141 58.5333 157.941 58.08C158.741 57.6267 159.654 57.4 160.681 57.4C161.721 57.4 162.641 57.6267 163.441 58.08C164.254 58.5333 164.888 59.16 165.341 59.96C165.808 60.76 166.041 61.6867 166.041 62.74C166.041 63.78 165.808 64.7067 165.341 65.52C164.888 66.32 164.254 66.9533 163.441 67.42C162.628 67.8733 161.708 68.1 160.681 68.1ZM160.681 66.84C161.441 66.84 162.114 66.6733 162.701 66.34C163.288 65.9933 163.748 65.5133 164.081 64.9C164.428 64.2733 164.601 63.5533 164.601 62.74C164.601 61.9133 164.428 61.1933 164.081 60.58C163.748 59.9667 163.288 59.4933 162.701 59.16C162.114 58.8133 161.448 58.64 160.701 58.64C159.954 58.64 159.288 58.8133 158.701 59.16C158.114 59.4933 157.648 59.9667 157.301 60.58C156.954 61.1933 156.781 61.9133 156.781 62.74C156.781 63.5533 156.954 64.2733 157.301 64.9C157.648 65.5133 158.114 65.9933 158.701 66.34C159.288 66.6733 159.948 66.84 160.681 66.84ZM181.5 68.1C180.46 68.1 179.527 67.8733 178.7 67.42C177.887 66.9533 177.247 66.32 176.78 65.52C176.313 64.7067 176.08 63.78 176.08 62.74C176.08 61.6867 176.313 60.76 176.78 59.96C177.247 59.16 177.887 58.5333 178.7 58.08C179.527 57.6267 180.46 57.4 181.5 57.4C182.393 57.4 183.2 57.5733 183.92 57.92C184.64 58.2667 185.207 58.7867 185.62 59.48L184.56 60.2C184.2 59.6667 183.753 59.2733 183.22 59.02C182.687 58.7667 182.107 58.64 181.48 58.64C180.733 58.64 180.06 58.8133 179.46 59.16C178.86 59.4933 178.387 59.9667 178.04 60.58C177.693 61.1933 177.52 61.9133 177.52 62.74C177.52 63.5667 177.693 64.2867 178.04 64.9C178.387 65.5133 178.86 65.9933 179.46 66.34C180.06 66.6733 180.733 66.84 181.48 66.84C182.107 66.84 182.687 66.7133 183.22 66.46C183.753 66.2067 184.2 65.82 184.56 65.3L185.62 66.02C185.207 66.7 184.64 67.22 183.92 67.58C183.2 67.9267 182.393 68.1 181.5 68.1ZM200.714 68.1C199.701 68.1 198.787 67.8733 197.974 67.42C197.174 66.9533 196.541 66.32 196.074 65.52C195.607 64.7067 195.374 63.78 195.374 62.74C195.374 61.6867 195.607 60.76 196.074 59.96C196.541 59.16 197.174 58.5333 197.974 58.08C198.774 57.6267 199.687 57.4 200.714 57.4C201.754 57.4 202.674 57.6267 203.474 58.08C204.287 58.5333 204.921 59.16 205.374 59.96C205.841 60.76 206.074 61.6867 206.074 62.74C206.074 63.78 205.841 64.7067 205.374 65.52C204.921 66.32 204.287 66.9533 203.474 67.42C202.661 67.8733 201.741 68.1 200.714 68.1ZM200.714 66.84C201.474 66.84 202.147 66.6733 202.734 66.34C203.321 65.9933 203.781 65.5133 204.114 64.9C204.461 64.2733 204.634 63.5533 204.634 62.74C204.634 61.9133 204.461 61.1933 204.114 60.58C203.781 59.9667 203.321 59.4933 202.734 59.16C202.147 58.8133 201.481 58.64 200.734 58.64C199.987 58.64 199.321 58.8133 198.734 59.16C198.147 59.4933 197.681 59.9667 197.334 60.58C196.987 61.1933 196.814 61.9133 196.814 62.74C196.814 63.5533 196.987 64.2733 197.334 64.9C197.681 65.5133 198.147 65.9933 198.734 66.34C199.321 66.6733 199.981 66.84 200.714 66.84ZM217.173 68V53.16H218.593V68H217.173Z" fill="white"/>
</svg>
